<?xml version="1.0" standalone="no"?>
<!DOCTYPE svg PUBLIC "-//W3C//DTD SVG 20010904//EN"
 "http://www.w3.org/TR/2001/REC-SVG-20010904/DTD/svg10.dtd">
<svg version="1.0" xmlns="http://www.w3.org/2000/svg"
 width="391.000000pt" height="391.000000pt" viewBox="0 0 391.000000 391.000000"
 preserveAspectRatio="xMidYMid meet">
<metadata>
Created by potrace 1.14, written by Peter Selinger 2001-2017
</metadata>
<g transform="translate(0.000000,391.000000) scale(0.100000,-0.100000)"
fill="#000000" stroke="none">
<path d="M1870 3684 c-118 -32 -215 -101 -303 -216 -50 -66 -137 -211 -137
-230 0 -5 70 -8 155 -8 l154 0 30 44 c42 61 116 124 162 138 128 38 287 -144
394 -452 127 -365 175 -829 139 -1337 -6 -76 -5 -81 12 -78 11 2 74 14 141 25
l122 22 7 56 c4 32 8 165 7 297 -2 1095 -396 1869 -883 1739z"/>
<path d="M760 2880 c0 -149 4 -270 9 -270 5 0 37 11 72 24 35 13 94 31 132 41
l67 18 0 88 0 89 615 0 c373 0 615 4 615 9 0 17 -58 168 -85 220 l-25 51 -700
0 -700 0 0 -270z"/>
<path d="M2643 3133 c2 -10 22 -73 43 -140 l38 -123 88 0 88 0 0 -615 c0 -338
2 -615 3 -615 14 0 136 47 200 77 l77 36 0 699 0 698 -271 0 c-254 0 -271 -1
-266 -17z"/>
<path d="M1755 2724 c-495 -38 -813 -112 -1110 -259 -285 -141 -427 -315 -427
-522 1 -102 19 -157 83 -253 42 -64 98 -117 189 -182 57 -40 179 -108 195
-108 3 0 5 69 5 153 l0 154 -59 42 c-90 65 -130 124 -131 189 0 62 23 104 91
166 170 154 552 280 989 326 166 18 486 23 639 11 79 -6 145 -10 147 -8 4 4
-18 137 -36 225 -7 29 -18 53 -27 57 -19 7 -475 15 -548 9z"/>
<path d="M3250 2332 l1 -157 40 -25 c59 -36 137 -124 149 -169 29 -111 -71
-221 -301 -330 -326 -155 -723 -219 -1281 -209 l-288 6 5 -22 c2 -11 9 -50 15
-86 6 -36 16 -88 22 -116 l11 -51 66 -7 c104 -9 484 -7 616 5 482 41 932 176
1166 350 270 200 329 457 159 691 -65 89 -229 214 -346 263 l-34 14 0 -157z"/>
<path d="M1328 2316 c-65 -12 -120 -25 -123 -28 -12 -12 -26 -335 -20 -463 38
-829 266 -1433 600 -1592 65 -31 92 -37 160 -41 138 -7 234 31 352 141 78 74
213 274 213 317 0 6 -53 10 -152 10 l-153 -1 -48 -65 c-124 -167 -253 -165
-378 5 -147 199 -247 524 -295 948 -18 161 -23 532 -10 696 9 114 25 106 -146
73z"/>
<path d="M965 2221 c-27 -10 -85 -34 -127 -54 l-78 -36 0 -695 0 -696 271 0
c254 0 271 1 266 18 -3 9 -23 72 -44 140 l-37 122 -88 0 -88 0 0 610 c0 482
-3 610 -12 609 -7 0 -35 -8 -63 -18z"/>
<path d="M3035 1233 c-60 -19 -116 -37 -122 -39 -9 -2 -13 -29 -13 -89 l0 -85
-616 0 -616 0 7 -31 c8 -37 49 -137 81 -201 l24 -48 700 0 700 0 0 265 c0 246
-1 265 -17 264 -10 -1 -67 -17 -128 -36z"/>
</g>
</svg>
